<svg xmlns="http://www.w3.org/2000/svg" viewBox="0 0 512 512" width="512" height="512">
  <defs>
    <linearGradient id="bg" x1="0" y1="0" x2="1" y2="1">
      <stop offset="0%" stop-color="#0a2240"/>
      <stop offset="60%" stop-color="#1a4a8a"/>
      <stop offset="100%" stop-color="#c8102e"/>
    </linearGradient>
  </defs>
  <rect width="512" height="512" rx="96" fill="url(#bg)"/>
  <g transform="translate(256 248)">
    <circle r="150" fill="#ffffff"/>
    <circle r="150" fill="none" stroke="#0a2240" stroke-width="8"/>
    <g fill="#0a2240">
      <polygon points="0,-54 51,-17 32,43 -32,43 -51,-17"/>
      <polygon points="0,-150 38,-122 0,-90 -38,-122"/>
      <polygon points="122,-79 137,-33 90,-26 73,-72"/>
      <polygon points="92,86 122,124 78,150 50,110"/>
      <polygon points="-92,86 -50,110 -78,150 -122,124"/>
      <polygon points="-122,-79 -73,-72 -90,-26 -137,-33"/>
    </g>
  </g>
  <text x="256" y="468" font-family="Arial, sans-serif" font-size="68" font-weight="700" fill="#ffffff" text-anchor="middle">2026</text>
</svg>
